PathFileType   4   (X/Y/Z)
DataRate	CameraRate	NumFrames	NumMarkers	Units	OrigDataRate	OrigDataStartFrame	OrigNumFrames
120.0	120.0	5	37	mm	120.0	25	194
Frame#	Time	midhip	hip_r	hip_l	knee_r	knee_l	ankle_r	ankle_l	midasis	asis_r	asis_l	psis_r	psis_l	epicondLat_r	epicondLat_l	epicondMed_r	epicondMed_l	malleolusLat_r	malleolusLat_l	malleolusMedv_r	malleolusMedv_l	neck	subclavicle_r	subclavicle_l	sternalnotch	xyphoidprocess	thighwand_r	thighwand_l	upperleg1_r	upperleg1_l	upperleg2_r	upperleg2_l	shankwand_r	shankwand_l	lowerleg1_r	lowerleg1_l	toe_r	toe_l
 	 	X1	Y1	Z1	X2	Y2	Z2	X3	Y3	Z3	X4	Y4	Z4	X5	Y5	Z5	X6	Y6	Z6	X7	Y7	Z7	X8	Y8	Z8	X9	Y9	Z9	X10	Y10	Z10	X11	Y11	Z11	X12	Y12	Z12	X13	Y13	Z13	X14	Y14	Z14	X15	Y15	Z15	X16	Y16	Z16	X17	Y17	Z17	X18	Y18	Z18	X19	Y19	Z19	X20	Y20	Z20	X21	Y21	Z21	X22	Y22	Z22	X23	Y23	Z23	X24	Y24	Z24	X25	Y25	Z25	X26	Y26	Z26	X27	Y27	Z27	X28	Y28	Z28	X29	Y29	Z29	X30	Y30	Z30	X31	Y31	Z31	X32	Y32	Z32	X33	Y33	Z33	X34	Y34	Z34	X35	Y35	Z35	X36	Y36	Z36	X37	Y37	Z37

	25	0.57500	255.320	773.955	-290.528	231.539	776.872	-212.715	241.401	776.645	-368.031	376.739	413.687	-158.030	238.714	423.311	-332.086	118.248	176.177	-180.754	234.262	58.520	-302.202	362.032	852.294	-282.511	354.065	852.478	-157.050	369.998	852.110	-407.972	114.606	916.373	-266.092	114.586	917.643	-319.510	377.947	424.804	-87.410	242.164	416.057	-403.134	402.013	404.265	-227.130	224.659	419.162	-249.608	110.509	181.022	-143.353	217.898	55.783	-338.048	129.411	183.794	-216.777	228.766	78.577	-262.285	158.232	1350.721	-296.556	279.745	1273.355	-258.598	279.091	1273.968	-340.847	262.015	1269.825	-311.648	307.368	1191.922	-311.521	473.569	632.106	-107.068	425.392	591.603	-344.423	429.926	631.568	-128.200	379.611	608.053	-356.143	443.970	555.517	-126.462	357.333	538.126	-348.257	278.826	213.425	-145.526	214.171	155.479	-414.869	251.930	252.555	-155.089	214.683	171.697	-369.548	174.731	87.126	-178.106	336.385	46.707	-313.910
	26	0.58333	258.204	773.850	-290.754	234.613	776.853	-212.881	244.085	776.503	-368.222	384.856	415.291	-158.755	240.174	423.296	-332.042	131.985	172.940	-182.193	234.320	58.537	-302.131	364.990	852.120	-283.060	357.338	852.403	-157.576	372.642	851.837	-408.544	117.618	916.424	-266.107	117.454	917.645	-319.515	386.390	426.498	-88.156	243.538	415.982	-403.088	408.646	407.804	-229.281	225.713	420.052	-248.533	123.971	177.688	-144.837	217.955	55.860	-337.981	143.644	180.351	-218.195	229.380	78.560	-262.274	161.731	1350.913	-296.962	283.250	1273.370	-258.601	282.640	1274.398	-340.483	265.316	1269.842	-311.891	310.919	1192.212	-311.745	479.227	635.282	-108.656	427.273	590.995	-344.662	438.016	634.764	-129.962	381.573	607.407	-356.451	450.729	558.466	-127.802	358.945	537.646	-348.065	291.483	213.458	-146.296	214.632	155.501	-414.782	264.630	252.374	-156.386	215.437	171.757	-369.469	191.713	86.341	-178.481	336.489	46.727	-313.938
	27	0.59167	261.153	773.760	-291.010	237.716	776.833	-213.090	246.893	776.383	-368.447	392.843	416.905	-159.566	241.582	423.310	-331.978	145.996	169.460	-183.632	234.361	58.537	-302.045	368.012	851.966	-283.561	360.598	852.329	-158.049	375.425	851.603	-409.074	120.650	916.489	-266.083	120.312	917.661	-319.502	394.642	428.177	-88.983	244.861	415.923	-403.020	415.358	409.477	-229.761	227.338	419.974	-247.913	137.695	174.113	-146.327	217.989	55.920	-337.897	157.577	177.051	-219.592	229.654	78.614	-262.225	164.664	1351.208	-297.173	286.635	1273.261	-258.575	285.761	1274.208	-341.081	268.596	1269.854	-312.114	314.023	1192.011	-312.030	484.762	638.337	-110.133	429.114	590.376	-344.905	441.905	636.683	-130.636	383.201	606.869	-356.615	456.637	561.131	-129.165	360.470	537.170	-348.053	304.304	213.425	-147.043	215.047	155.535	-414.703	276.531	251.714	-157.255	215.959	172.021	-369.372	208.863	85.385	-178.805	336.580	46.737	-313.947
	28	0.60000	264.169	773.684	-291.284	240.852	776.817	-213.335	249.829	776.278	-368.704	400.714	418.532	-160.462	242.941	423.362	-331.898	160.261	165.779	-185.068	234.376	58.524	-301.941	371.101	851.836	-284.015	363.847	852.272	-158.469	378.355	851.400	-409.561	123.699	916.568	-266.019	123.149	917.686	-319.467	402.706	429.836	-89.889	246.134	415.891	-402.935	423.342	411.025	-229.923	230.583	417.804	-249.236	151.669	170.326	-147.816	218.003	55.964	-337.797	171.505	174.312	-221.006	230.233	78.643	-262.211	167.928	1351.196	-297.300	289.187	1273.250	-258.445	288.744	1273.894	-342.266	271.846	1269.838	-312.310	316.627	1191.726	-312.098	490.160	641.247	-111.475	430.922	589.742	-345.150	446.235	638.895	-131.435	384.798	606.613	-356.692	462.863	563.755	-130.237	362.649	536.930	-348.719	317.275	213.334	-147.796	215.440	155.577	-414.625	288.442	250.959	-157.652	216.686	172.069	-369.372	226.146	84.273	-179.095	336.656	46.734	-313.946
	29	0.60833	267.294	773.614	-291.594	244.020	776.811	-213.602	252.883	776.177	-368.977	408.468	420.172	-161.434	244.259	423.453	-331.804	174.758	161.930	-186.497	234.369	58.499	-301.818	374.251	851.729	-284.420	367.088	852.242	-158.840	381.415	851.217	-410.000	126.763	916.656	-265.910	125.956	917.720	-319.408	410.581	431.469	-90.863	247.364	415.891	-402.836	432.161	412.437	-230.056	233.750	416.064	-249.930	165.883	166.352	-149.296	218.004	55.996	-337.681	185.693	170.852	-222.409	231.419	78.564	-262.268	171.282	1351.054	-297.582	292.071	1273.250	-258.698	292.118	1273.905	-342.432	275.062	1269.789	-312.510	319.819	1191.731	-312.157	495.409	643.991	-112.670	432.710	589.094	-345.396	450.525	641.273	-132.204	386.216	606.060	-357.024	469.269	566.013	-131.162	364.875	536.834	-349.246	330.376	213.192	-148.577	215.829	155.628	-414.540	300.226	250.249	-158.501	217.817	171.766	-369.466	243.531	83.021	-179.377	336.720	46.721	-313.950
